<svg xmlns="http://www.w3.org/2000/svg" width="35.389" height="35.389" viewBox="0 0 35.389 35.389">
  <path id="Path_302" data-name="Path 302" d="M802.038-506.056a17.694,17.694,0,0,0-17.694,17.694,17.694,17.694,0,0,0,17.694,17.694,17.694,17.694,0,0,0,17.694-17.694A17.694,17.694,0,0,0,802.038-506.056Zm1.669,27.423H800.37v-13.776h3.338Zm-1.656-15.534a2.008,2.008,0,0,1-1.962-1.937,1.984,1.984,0,0,1,1.962-1.987,1.969,1.969,0,0,1,1.936,1.936A2.032,2.032,0,0,1,802.051-494.166Z" transform="translate(-784.344 506.056)" fill="#fff"/>
</svg>
