<svg xmlns="http://www.w3.org/2000/svg" width="95.917" height="44.269" viewBox="0 0 95.917 44.269"><g transform="translate(0 0)"><g transform="translate(66.404 22.134)"><path d="M1017.666,714.412l7.378-7.379H995.531l7.378,7.379Z" transform="translate(-995.531 -707.034)" fill="#036"/></g><g transform="translate(0 12.225)"><path d="M907.059,694.963l-1.528,1.528v7.378h10.6Z" transform="translate(-905.531 -693.959)" fill="#008aff"/><path d="M958.392,693.677l-10.435,9.835h64.614l-7.378-7.379H960.924l-2.532-2.531Z" transform="translate(-916.654 -693.603)" fill="#008aff"/></g><path d="M936.834,707.034h-1.79a7.378,7.378,0,0,1-14.756,0H905.531v7.378l14.756,14.756h14.756L949.8,714.412h14.756l7.378-7.378Z" transform="translate(-905.531 -684.899)" fill="#005098"/><path d="M935.587,677.034H920.83L907.6,690.262l9.068,8.906h4.161a7.378,7.378,0,0,1,14.756,0h1.79l10.435-9.835v-.075Z" transform="translate(-906.074 -677.034)" fill="#56b4fd"/></g><path d="M980.287,714.412l-7.378-7.378-7.378,7.378Z" transform="translate(-921.262 -684.899)" fill="#06f"/><g transform="translate(10.594 10.596)"><path d="M938.807,707.034a7.378,7.378,0,1,1-14.756,0H919.89a11.539,11.539,0,0,0,23.078,0Z" transform="translate(-919.89 -695.495)" fill="#06f"/><path d="M924.051,702.934a7.378,7.378,0,1,1,14.756,0h4.161a11.539,11.539,0,0,0-23.078,0h4.161Z" transform="translate(-919.89 -691.395)" fill="#008aff"/></g><path d="M907.059,715.94l-1.528-1.528v-7.378h10.6Z" transform="translate(-905.531 -684.899)" fill="#06f"/></svg>